<svg xmlns="http://www.w3.org/2000/svg" width="1200" height="180" viewBox="0 0 1200 180">
<defs>
<linearGradient id="bg" x1="0" y1="0" x2="1" y2="1">
<stop offset="0%" stop-color="#050816"/><stop offset="55%" stop-color="#17112F"/><stop offset="100%" stop-color="#06202D"/>
</linearGradient>
<linearGradient id="neon" x1="0" y1="0" x2="1" y2="0">
<stop offset="0%" stop-color="#A855F7"/><stop offset="50%" stop-color="#6366F1"/><stop offset="100%" stop-color="#22D3EE"/>
</linearGradient>
</defs>
<rect width="1200" height="180" rx="24" fill="url(#bg)"/>
<path d="M0 35 H1200" stroke="#FFFFFF" stroke-opacity=".035"/>
<path d="M0 70 H1200" stroke="#FFFFFF" stroke-opacity=".025"/>
<rect x="0" y="176" width="1200" height="4" fill="url(#neon)"/>
<text x="600" y="40" text-anchor="middle" font-family="monospace" font-size="12" fill="#C084FC">MY DEVELOPMENT LOOP</text><g font-family="Arial" text-anchor="middle"><g transform="translate(55 68)"><circle cx="55" cy="45" r="35" fill="#111827" stroke="#8B5CF6"/><text x="55" y="50" font-size="12" fill="#FFFFFF">OBSERVE</text></g><text x="150" y="117" font-size="22" fill="#64748B">→</text><g transform="translate(180 68)"><circle cx="55" cy="45" r="35" fill="#111827" stroke="#6366F1"/><text x="55" y="50" font-size="12" fill="#FFFFFF">UNDERSTAND</text></g><text x="310" y="117" font-size="22" fill="#64748B">→</text><g transform="translate(340 68)"><circle cx="55" cy="45" r="35" fill="#111827" stroke="#22D3EE"/><text x="55" y="50" font-size="12" fill="#FFFFFF">DESIGN</text></g><text x="470" y="117" font-size="22" fill="#64748B">→</text><g transform="translate(500 68)"><circle cx="55" cy="45" r="35" fill="#111827" stroke="#22D3EE"/><text x="55" y="50" font-size="12" fill="#FFFFFF">BUILD</text></g><text x="630" y="117" font-size="22" fill="#64748B">→</text><g transform="translate(660 68)"><circle cx="55" cy="45" r="35" fill="#111827" stroke="#8B5CF6"/><text x="55" y="50" font-size="12" fill="#FFFFFF">IMPROVE</text></g></g>
</svg>